HIERARCHY
ROOT Hips
{
  OFFSET -125.086 92.215 135.881
  CHANNELS 6 Xposition Yposition Zposition Zrotation Xrotation Yrotation
  JOINT LeftUpLeg
  {
    OFFSET 8.64259 1.95398 -2.38835
    CHANNELS 3 Zrotation Xrotation Yrotation
    JOINT LeftLeg
    {
      OFFSET 43.7702 0 0
      CHANNELS 3 Zrotation Xrotation Yrotation
      JOINT LeftFoot
      {
        OFFSET 40.6238 0 0
        CHANNELS 3 Zrotation Xrotation Yrotation
        JOINT LeftToeBase
        {
          OFFSET 12.7242 0 0
          CHANNELS 3 Zrotation Xrotation Yrotation
          End Site
          {
            OFFSET 0 0 0
          }
        }
      }
    }
  }
  JOINT RightUpLeg
  {
    OFFSET -8.2249 1.95398 -2.59336
    CHANNELS 3 Zrotation Xrotation Yrotation
    JOINT RightLeg
    {
      OFFSET 43.5653 0 0
      CHANNELS 3 Zrotation Xrotation Yrotation
      JOINT RightFoot
      {
        OFFSET 40.6238 0 0
        CHANNELS 3 Zrotation Xrotation Yrotation
        JOINT RightToeBase
        {
          OFFSET 12.7242 0 0
          CHANNELS 3 Zrotation Xrotation Yrotation
          End Site
          {
            OFFSET 0 0 0
          }
        }
      }
    }
  }
  JOINT Spine
  {
    OFFSET 0.165834 0.87714 6.61349
    CHANNELS 3 Zrotation Xrotation Yrotation
    JOINT Spine1
    {
      OFFSET 7.38963 1.71661e-005 0
      CHANNELS 3 Zrotation Xrotation Yrotation
      JOINT Spine2
      {
        OFFSET 11.9445 1.14441e-005 0
        CHANNELS 3 Zrotation Xrotation Yrotation
        JOINT Spine3
        {
          OFFSET 14.7254 4.19617e-005 0
          CHANNELS 3 Zrotation Xrotation Yrotation
          JOINT Spine4
          {
            OFFSET 10.9679 0 0
            CHANNELS 3 Zrotation Xrotation Yrotation
            JOINT RightShoulder
            {
              OFFSET 2.46616 -1.6653 3.69651
              CHANNELS 3 Zrotation Xrotation Yrotation
              JOINT RightArm
              {
                OFFSET 13.0012 0 0
                CHANNELS 3 Zrotation Xrotation Yrotation
                JOINT RightForeArm
                {
                  OFFSET 28.7848 1.52588e-005 0
                  CHANNELS 3 Zrotation Xrotation Yrotation
                  JOINT RightHand
                  {
                    OFFSET 26.5688 1.52588e-005 0
                    CHANNELS 3 Zrotation Xrotation Yrotation
                    End Site
                    {
                      OFFSET 0 0 0
                    }
                  }
                }
              }
            }
            JOINT LeftShoulder
            {
              OFFSET 2.38034 -1.29275 -3.7523
              CHANNELS 3 Zrotation Xrotation Yrotation
              JOINT LeftArm
              {
                OFFSET 16.3182 6.10352e-005 0
                CHANNELS 3 Zrotation Xrotation Yrotation
                JOINT LeftForeArm
                {
                  OFFSET 27.0901 0 0
                  CHANNELS 3 Zrotation Xrotation Yrotation
                  JOINT LeftHand
                  {
                    OFFSET 24.5451 1.52588e-005 0
                    CHANNELS 3 Zrotation Xrotation Yrotation
                    End Site
                    {
                      OFFSET 0 0 0
                    }
                  }
                }
              }
            }
            JOINT Neck
            {
              OFFSET 5.0226 -0.0266342 0
              CHANNELS 3 Zrotation Xrotation Yrotation
              JOINT Head
              {
                OFFSET 6.69363 2.86102e-005 0
                CHANNELS 3 Zrotation Xrotation Yrotation
                End Site
                {
                  OFFSET 0 0 0
                }
              }
            }
          }
        }
      }
    }
  }
}
MOTION
Frames:	6
Frame Time:	0.0416667
-255.204 89.9572 304.169 -101.79 -34.5724 -94.5255 -179.861 11.955 87.3585 -5.20649 -12.9327 3.46092 52.625 -1.49135 -2.01795 51.03 -0.528877 17.178 170.053 -0.490493 81.7722 -37.3768 -24.7698 -1.08861 70.4027 -1.65132 24.2045 35.3674 -0.947532 -2.01858 -1.52116 9.087 -87.9964 8.72198 -2.14587 4.10475 -2.95396 -1.9633 4.19501 -25.4674 -3.27973 3.27125 -5.45471 -3.27969 3.27125 83.4482 -50.202 -110.954 38.5824 -18.4814 -27.843 3.41955 -32.9197 -18.705 -17.3403 -1.18713 2.7886 -74.3421 -9.83402 106.651 -68.2733 -20.5144 1.96711 27.057 29.4171 -25.0151 -11.2844 0.0165477 -5.74405 10.4358 29.8701 -52.6336 -140.083 -6.49811 9.97283 
-250.949 90.725 298.767 -104.736 -36.7786 -100.768 -179.786 9.33356 83.8607 -12.4444 -3.15677 1.03045 51.2166 2.15422 4.39228 50.23 -0.399209 19.0498 168.298 1.18869 79.106 -37.1006 -24.8401 0.246351 72.8367 -3.9336 18.5645 31.3403 -0.224246 -2.29631 -1.76281 9.81978 -87.7497 7.26277 -2.54974 4.55446 -4.41402 -2.34704 4.66197 -26.926 -3.79984 3.57917 -6.91336 -3.79985 3.57915 86.788 -51.6917 -105.492 39.1718 -13.6198 -32.1729 1.01254 -39.0984 -14.7158 -15.7002 -0.678598 -0.147768 -72.8306 -14.9203 109.48 -65.0844 -13.3678 -7.51721 26.6169 34.9168 -25.8006 -14.4764 0.127325 -6.42042 17.0489 24.58 -52.7035 -134.714 -13.6637 17.5974 
-248.044 91.4507 293.074 -105.998 -40.22 -103.354 -175.893 11.6594 82.9102 -41.1491 -5.89801 0.0868902 58.0314 6.21585 3.25473 48.6729 -0.818491 14.5777 170.239 3.48357 81.5405 -36.5422 -19.0195 0.283859 71.0215 -2.62739 17.8293 28.9852 0.24089 -2.95694 -2.09334 9.88931 -87.9396 7.13819 -3.29431 4.20845 -4.53592 -3.10608 4.34911 -27.0724 -4.40624 3.02447 -7.05974 -4.40625 3.02446 89.6437 -52.661 -100.987 41.0726 -8.17249 -29.8847 1.04187 -40.1016 -10.3613 -13.5048 -0.596744 -0.0935033 -72.2186 -19.0574 110.04 -60.4187 -8.77518 -14.921 25.5544 39.1596 -25.1501 -13.5191 0.169084 -6.96404 19.0565 19.3965 -52.9036 -115.117 -24.4265 35.4178 
-245.553 91.336 287.253 -102.544 -47.6742 -100.258 -175.969 12.2424 86.7057 -58.903 0.63976 2.44264 56.4634 5.14261 3.21292 53.1818 -0.382318 17.2639 173.744 8.46007 87.1138 -34.6645 -9.92829 0.546863 69.7904 -1.25901 15.4952 26.7749 0.839439 -4.45272 -2.85908 9.1321 -88.8999 8.67124 -5.21704 2.52469 -2.9921 -5.1009 2.75222 -25.6084 -5.73398 0.835642 -5.59577 -5.73399 0.835638 90.9604 -51.217 -99.3223 40.3148 -0.816488 -21.7896 -2.23853 -43.497 -10.0407 -8.55307 -0.378684 0.00267643 -69.9684 -30.2799 112.318 -49.5876 -6.43588 -20.507 21.5939 38.4982 -24.7192 -9.16237 0.0500683 -6.79898 12.2407 12.6426 -50.5204 -59.8876 -11.902 64.5534 
-241.85 91.1815 282.012 -100.061 -56.2991 -95.7362 -178.211 7.88374 93.3444 -60.8249 7.09529 6.1316 58.5653 5.7699 2.51131 52.6726 -0.560307 15.6962 175.025 12.7796 91.4245 -31.184 -4.61355 1.82163 65.1139 0.423386 11.882 27.2999 0.747489 -4.57481 -3.65561 8.65786 -89.7917 9.60117 -7.19405 0.967387 -2.05038 -7.14448 1.28467 -24.7439 -7.15043 -1.2509 -4.73125 -7.15043 -1.25092 93.1837 -51.7423 -95.8525 36.3879 4.38786 -17.0366 -1.0315 -45.8808 -5.91875 -6.68513 -0.345866 0.91307 -68.8682 -38.4717 112.542 -41.4768 -4.62796 -26.0915 19.1233 36.4808 -26.2421 -5.00259 -0.0457836 -6.31882 8.84509 7.81533 -38.9843 -21.1222 9.96296 41.2383 
-236.721 91.4664 277.01 -99.8868 -62.2291 -95.4005 -178.307 0.912842 96.6953 -50.2395 14.7592 9.21932 59.2454 4.56796 -2.99798 55.7127 -0.525124 14.9533 174.831 15.6535 90.7423 -26.2505 -2.70806 2.26719 57.6049 2.6142 9.9718 29.1623 0.506003 -5.73163 -3.77384 8.40594 -89.8364 10.1085 -7.44571 0.948126 -1.54157 -7.39671 1.27668 -24.2461 -7.38447 -1.34611 -4.23351 -7.38446 -1.34611 98.4266 -56.2848 -87.5667 30.7173 5.69151 -14.7182 3.99772 -41.7667 0.33495 -9.75449 -0.486431 0.639065 -72.6416 -35.4821 106.35 -40.878 0.0110317 -31.9756 16.4827 35.012 -25.6063 -4.93008 -0.0334533 -6.81798 8.95616 4.4001 -40.234 -22.1237 6.80521 39.737 
